<svg width="14" height="14" viewBox="0 0 14 14" fill="none" xmlns="http://www.w3.org/2000/svg">
<mask id="mask0_11_482" style="mask-type:alpha" maskUnits="userSpaceOnUse" x="0" y="0" width="14" height="14">
<rect width="14" height="14" fill="#D9D9D9"/>
</mask>
<g mask="url(#mask0_11_482)">
<path d="M7.00016 9.62504C7.72855 9.62504 8.34815 9.36964 8.85895 8.85883C9.36976 8.34803 9.62516 7.72843 9.62516 7.00004C9.62516 6.27165 9.36976 5.65205 8.85895 5.14125C8.34815 4.63044 7.72855 4.37504 7.00016 4.37504C6.27177 4.37504 5.65218 4.63044 5.14137 5.14125C4.63057 5.65205 4.37516 6.27165 4.37516 7.00004C4.37516 7.72843 4.63057 8.34803 5.14137 8.85883C5.65218 9.36964 6.27177 9.62504 7.00016 9.62504ZM7.00118 12.5417C6.23468 12.5417 5.51422 12.3963 4.83979 12.1054C4.16536 11.8145 3.57872 11.4197 3.07987 10.9211C2.58102 10.4224 2.18606 9.83601 1.89498 9.16187C1.60399 8.48774 1.4585 7.76746 1.4585 7.00106C1.4585 6.23456 1.60394 5.5141 1.89483 4.83967C2.18572 4.16523 2.58049 3.5786 3.07914 3.07975C3.57779 2.5809 4.16419 2.18594 4.83833 1.89485C5.51247 1.60387 6.23274 1.45837 6.99914 1.45837C7.76564 1.45837 8.48611 1.60382 9.16054 1.89471C9.83497 2.1856 10.4216 2.58037 10.9205 3.07902C11.4193 3.57767 11.8143 4.16407 12.1054 4.83821C12.3963 5.51235 12.5418 6.23262 12.5418 6.99902C12.5418 7.76552 12.3964 8.48599 12.1055 9.16042C11.8146 9.83485 11.4198 10.4215 10.9212 10.9203C10.4225 11.4192 9.83613 11.8141 9.162 12.1052C8.48786 12.3962 7.76759 12.5417 7.00118 12.5417ZM7.00016 11.6667C8.30294 11.6667 9.40641 11.2146 10.3106 10.3105C11.2147 9.40629 11.6668 8.30282 11.6668 7.00004C11.6668 5.69726 11.2147 4.59379 10.3106 3.68962C9.40641 2.78546 8.30294 2.33337 7.00016 2.33337C5.69738 2.33337 4.59391 2.78546 3.68975 3.68962C2.78558 4.59379 2.3335 5.69726 2.3335 7.00004C2.3335 8.30282 2.78558 9.40629 3.68975 10.3105C4.59391 11.2146 5.69738 11.6667 7.00016 11.6667Z" fill="#023586"/>
</g>
</svg>
