<svg width="14" height="14" viewBox="0 0 14 14" fill="none" xmlns="http://www.w3.org/2000/svg">
<mask id="mask0_11_479" style="mask-type:alpha" maskUnits="userSpaceOnUse" x="0" y="0" width="14" height="14">
<rect width="14" height="14" fill="#D9D9D9"/>
</mask>
<g mask="url(#mask0_11_479)">
<path d="M7.00118 12.5416C6.23468 12.5416 5.51422 12.3961 4.83979 12.1053C4.16536 11.8144 3.57872 11.4196 3.07987 10.9209C2.58102 10.4223 2.18606 9.83589 1.89498 9.16175C1.60399 8.48761 1.4585 7.76734 1.4585 7.00094C1.4585 6.23444 1.60394 5.51397 1.89483 4.83954C2.18572 4.16511 2.58049 3.57847 3.07914 3.07963C3.5778 2.58078 4.16419 2.18581 4.83833 1.89473C5.51247 1.60374 6.23274 1.45825 6.99914 1.45825C7.76564 1.45825 8.48611 1.6037 9.16054 1.89459C9.83497 2.18547 10.4216 2.58025 10.9205 3.0789C11.4193 3.57755 11.8143 4.16395 12.1054 4.83809C12.3963 5.51222 12.5418 6.2325 12.5418 6.9989C12.5418 7.7654 12.3964 8.48586 12.1055 9.16029C11.8146 9.83473 11.4198 10.4214 10.9212 10.9202C10.4225 11.4191 9.83614 11.814 9.162 12.1051C8.48786 12.3961 7.76759 12.5416 7.00118 12.5416ZM7.00016 11.6666C8.30294 11.6666 9.40641 11.2145 10.3106 10.3103C11.2147 9.40617 11.6668 8.3027 11.6668 6.99992C11.6668 5.69714 11.2147 4.59367 10.3106 3.6895C9.40641 2.78534 8.30294 2.33325 7.00016 2.33325C5.69739 2.33325 4.59391 2.78534 3.68975 3.6895C2.78558 4.59367 2.3335 5.69714 2.3335 6.99992C2.3335 8.3027 2.78558 9.40617 3.68975 10.3103C4.59391 11.2145 5.69739 11.6666 7.00016 11.6666Z" fill="#023586"/>
</g>
</svg>
